<?xml version="1.0" encoding="UTF-8"?>
<!DOCTYPE svg PUBLIC "-//W3C//DTD SVG 1.1//EN" "http://www.w3.org/Graphics/SVG/1.1/DTD/svg11.dtd">
<!-- Creator: CorelDRAW 2018 (64-Bit) -->
<svg xmlns="http://www.w3.org/2000/svg" xml:space="preserve" width="4.11071in" height="4.00468in" version="1.1" style="shape-rendering:geometricPrecision; text-rendering:geometricPrecision; image-rendering:optimizeQuality; fill-rule:evenodd; clip-rule:evenodd"
viewBox="0 0 4617.73 4498.62"
 xmlns:xlink="http://www.w3.org/1999/xlink">
 <defs>
  <style type="text/css">
   <![CDATA[
    .fil0 {fill:#FF1555}
   ]]>
  </style>
 </defs>
 <g id="Layer_x0020_1">
  <metadata id="CorelCorpID_0Corel-Layer"/>
  <path class="fil0" d="M1286.87 4017c-541.17,-354.12 -897.82,-968.11 -897.82,-1663.76 0,-1091.9 878.55,-1970.44 1970.44,-1970.44 509.7,0 975.64,196.92 1326.34,514.15l267.35 -267.35c-420.87,-390.89 -984.83,-629.61 -1599.95,-629.61 -1298.98,0 -2353.23,1054.25 -2353.23,2353.24 0,817.76 417.98,1538.25 1051.65,1960.06 72.86,-98.18 151.4,-197.12 235.23,-296.29zm1731.94 -1404.25c540.37,-375.02 1085.03,-669.89 1595.16,-876.94l3.76 13.94c-479.14,206.27 -981.89,496.27 -1472.71,863 -779.45,582.37 -1390.23,1254.52 -1761.49,1885.88 -80.26,-36.06 -158.07,-76.54 -233.26,-121.02 436.96,-595.53 1082.81,-1219.53 1868.54,-1764.86zm-937.56 600.52c-381.8,-102.06 -653.1,-445.03 -653.1,-853.75 0,-495.75 401.61,-897.38 903.64,-897.38 205.79,0 406.07,93.65 559.54,229.34l253.75 -253.76c-247.65,-221.01 -528.26,-339.54 -825.83,-339.54 -696.56,0 -1255.05,564.78 -1255.05,1255.05 0,505.57 299.6,943.74 711.39,1142.08 97.57,-94.7 199.54,-188.83 305.67,-282.04z"/>
 </g>
</svg>
